<svg width="20" height="17" viewBox="0 0 20 17" fill="none" xmlns="http://www.w3.org/2000/svg">
<g clip-path="url(#clip0_212_1155)">
<path d="M19.0251 7.26073C19.027 7.2468 19.027 7.23273 19.0251 7.21881C19.0269 7.20747 19.0269 7.1959 19.0251 7.18453L18.889 6.20541C18.8694 6.08828 18.8169 5.97879 18.7375 5.8892L18.7141 5.86253L18.6714 5.82063L16.3165 3.83192L16.3825 3.8967C16.3285 3.8333 16.2606 3.78259 16.184 3.74831C16.1073 3.71402 16.0238 3.69703 15.9395 3.69859H15.2245C15.1082 3.69633 14.9946 3.73257 14.9019 3.80145C14.8046 3.73298 14.6875 3.69693 14.5677 3.69859H13.8527C13.7589 3.69709 13.6664 3.71991 13.5845 3.76473C13.5026 3.80956 13.4343 3.8748 13.3864 3.95384C13.3125 4.06674 13.2848 4.20276 13.3086 4.33482L13.398 4.952C13.3388 4.91909 13.2718 4.90202 13.2037 4.90248H9.74122C9.61699 4.90324 9.49562 4.93894 9.39146 5.00534C9.29075 5.06714 9.2099 5.15564 9.15831 5.26059L8.89016 5.03581C8.78463 4.94008 8.64533 4.8882 8.50156 4.89105H3.06884C2.94417 4.89327 2.82227 4.92742 2.71522 4.9901C2.56876 5.07414 2.46143 5.21078 2.41598 5.37107L0.690567 11.0286C0.658328 11.1218 0.655156 11.2224 0.681459 11.3174C0.707761 11.4123 0.762345 11.4975 0.838239 11.562C0.858014 11.5784 0.878779 11.5937 0.900417 11.6077C0.900417 11.6077 0.865437 11.5848 0.846007 11.5658L3.20097 13.5583C3.30059 13.6482 3.43084 13.6985 3.56624 13.6992H9.04173C9.16678 13.6961 9.28876 13.6606 9.39537 13.5964C9.45566 13.5641 9.5096 13.5215 9.55469 13.4706L9.57412 13.444L9.60521 13.4059L9.62852 13.364L9.88501 13.5811C9.9832 13.6675 10.1106 13.715 10.2425 13.7145H15.7296C15.8546 13.7104 15.9763 13.675 16.0833 13.6116C16.1422 13.5773 16.1958 13.535 16.2426 13.4859L16.262 13.4592L16.2931 13.4211C16.3096 13.397 16.324 13.3715 16.3359 13.3449C16.3486 13.3218 16.359 13.2976 16.367 13.2726L17.9408 8.1065V8.06078C17.9428 8.04305 17.9428 8.02517 17.9408 8.00744V7.97316C17.9427 7.96179 17.9427 7.95023 17.9408 7.93886C17.9426 7.91477 17.9426 7.89058 17.9408 7.86647H18.446C18.49 7.87042 18.5342 7.87042 18.5781 7.86647H18.6131C18.6416 7.85815 18.6689 7.84664 18.6947 7.83219H18.7336L18.8035 7.77885L18.8346 7.75599L18.889 7.68741V7.66457L18.9279 7.59979C18.9257 7.5872 18.9257 7.5743 18.9279 7.56171C18.9258 7.55552 18.9258 7.54884 18.9279 7.54265C18.9361 7.52031 18.9426 7.49738 18.9473 7.47407C18.9455 7.46655 18.9455 7.45872 18.9473 7.4512C18.9454 7.43986 18.9454 7.42827 18.9473 7.41692C18.9473 7.41692 19.0251 7.26834 19.0251 7.26073Z" fill="black"/>
<path d="M8.66085 5.32536C8.68148 5.34365 8.69589 5.36769 8.70214 5.39426C8.70842 5.42083 8.7062 5.44864 8.69584 5.47394L6.97432 11.1276C6.95264 11.1894 6.90829 11.241 6.84996 11.2724C6.8025 11.3035 6.74756 11.3219 6.69061 11.3258H1.21904C1.17232 11.3236 1.12805 11.3046 1.09469 11.2724C1.07484 11.2544 1.06092 11.231 1.05469 11.2053C1.04845 11.1795 1.05021 11.1525 1.05971 11.1276L2.78513 5.47394C2.80501 5.41143 2.84797 5.35845 2.9056 5.32536C2.95384 5.29647 3.00851 5.27947 3.06492 5.27583H8.5365C8.58286 5.27627 8.62731 5.29397 8.66085 5.32536ZM5.80459 9.98852L6.8344 6.61306H3.95096L2.92502 9.98852H5.80459ZM13.8837 5.3825C13.9024 5.40377 13.9257 5.42064 13.952 5.43185C13.9782 5.44306 14.0067 5.44833 14.0353 5.44727H14.7464C14.7735 5.44753 14.8002 5.44102 14.824 5.42835C14.8478 5.41569 14.8679 5.39728 14.8825 5.37488C14.8951 5.35738 14.904 5.33757 14.9087 5.31663C14.9133 5.29569 14.9137 5.27404 14.9096 5.25297L14.7698 4.24719C14.7564 4.20064 14.7325 4.15766 14.6998 4.12147C14.6811 4.1002 14.6578 4.08333 14.6316 4.07212C14.6053 4.0609 14.5768 4.05564 14.5483 4.0567H13.8371C13.81 4.05644 13.7833 4.06295 13.7595 4.07562C13.7357 4.08828 13.7156 4.10668 13.7011 4.12909C13.6739 4.18242 13.6622 4.21671 13.6739 4.24719L13.8177 5.25297C13.825 5.30194 13.8482 5.34732 13.8837 5.3825ZM16.1415 4.23957C16.1282 4.19302 16.1043 4.15003 16.0716 4.11385C16.0537 4.09266 16.0311 4.07579 16.0055 4.06456C15.9799 4.05333 15.952 4.04803 15.9239 4.04908H15.2089C15.1822 4.04834 15.1559 4.05467 15.1326 4.06741C15.1094 4.08016 15.0901 4.09884 15.0768 4.12147C15.0509 4.15527 15.0397 4.19772 15.0457 4.23957L15.1894 5.24535C15.1985 5.29381 15.2214 5.33874 15.2555 5.37488C15.2745 5.39573 15.2979 5.41232 15.3241 5.4235C15.3502 5.43467 15.3785 5.44018 15.4071 5.43964H16.1221C16.1487 5.43999 16.1749 5.43349 16.198 5.42078C16.2212 5.40808 16.2406 5.38962 16.2542 5.36726C16.2678 5.35022 16.2772 5.33042 16.2819 5.30932C16.2866 5.28823 16.2865 5.26637 16.2814 5.24535L16.1415 4.23957ZM13.2581 5.76348L13.1881 5.26821H9.74119C9.68707 5.27113 9.63471 5.28824 9.58962 5.31773C9.561 5.33304 9.53609 5.35425 9.51663 5.3799C9.49719 5.40555 9.48365 5.43503 9.47694 5.46632L9.18936 6.41113C9.17789 6.43475 9.17396 6.46124 9.17812 6.48708C9.1823 6.51292 9.19434 6.53691 9.21268 6.55591C9.24545 6.58611 9.28822 6.60372 9.33315 6.60544H13.5223L12.4925 9.98091H8.315C8.26113 9.98211 8.20867 9.99794 8.16345 10.0266C8.10849 10.0608 8.06835 10.1137 8.05075 10.1752L7.7593 11.12C7.74978 11.1443 7.74728 11.1706 7.75208 11.1962C7.7569 11.2217 7.76878 11.2455 7.78648 11.2648C7.81824 11.297 7.86134 11.3161 7.90696 11.3181H13.3941C13.4508 11.3133 13.5055 11.295 13.5534 11.2648C13.6108 11.2332 13.6538 11.1815 13.6739 11.12L15.2516 5.95397H13.4757C13.4475 5.95451 13.4195 5.94938 13.3935 5.9389C13.3674 5.92841 13.3438 5.91279 13.3242 5.89301C13.292 5.85846 13.2693 5.81653 13.2581 5.7711V5.76348Z" fill="white"/>
</g>
<defs>
<clipPath id="clip0_212_1155">
<rect width="18.3627" height="10.016" fill="white" transform="translate(0.663818 3.69849)"/>
</clipPath>
</defs>
</svg>
