<svg width="17" height="17" viewBox="0 0 17 17" fill="none" xmlns="http://www.w3.org/2000/svg">
<g clip-path="url(#clip0_212_1121)">
<path fill-rule="evenodd" clip-rule="evenodd" d="M4.75077 2.0802C6.59465 2.0802 8.08944 3.57497 8.08944 5.41887V2.0802H11.4281C13.272 2.0802 14.7668 3.57497 14.7668 5.41887C14.7668 7.26274 13.272 8.75753 11.4281 8.75753C13.272 8.75753 14.7668 10.2523 14.7668 12.0962C14.7668 13.0118 14.3982 13.8413 13.8014 14.4444L13.7889 14.457L13.7778 14.468C13.1745 15.0657 12.3444 15.4349 11.4281 15.4349C10.518 15.4349 9.69297 15.0707 9.09071 14.4802C9.08289 14.4725 9.07508 14.4647 9.0673 14.457C9.05999 14.4497 9.05271 14.4423 9.04547 14.435C8.45416 13.8326 8.08944 13.007 8.08944 12.0962C8.08944 13.9401 6.59465 15.4349 4.75077 15.4349C2.90688 15.4349 1.41211 13.9401 1.41211 12.0962V8.75753H4.75077C2.90688 8.75753 1.41211 7.26274 1.41211 5.41887C1.41211 3.57497 2.90688 2.0802 4.75077 2.0802ZM7.42171 5.41887C7.42171 6.89399 6.2259 8.0898 4.75077 8.0898V2.74793C6.2259 2.74793 7.42171 3.94375 7.42171 5.41887ZM14.099 12.0962C14.099 10.6211 12.9032 9.42526 11.4281 9.42526C9.95298 9.42526 8.75717 10.6211 8.75717 12.0962H14.099ZM2.07984 9.42526V12.0962C2.07984 13.5713 3.27566 14.7671 4.75077 14.7671C6.2259 14.7671 7.42171 13.5713 7.42171 12.0962V9.42526H2.07984ZM8.75717 8.0898V2.74793H11.4281C12.9032 2.74793 14.099 3.94375 14.099 5.41887C14.099 6.89399 12.9032 8.0898 11.4281 8.0898H8.75717Z" fill="#263238"/>
</g>
<defs>
<clipPath id="clip0_212_1121">
<rect width="13.3547" height="13.3547" fill="white" transform="translate(1.41211 2.0802)"/>
</clipPath>
</defs>
</svg>
