<svg width="20" height="17" viewBox="0 0 20 17" fill="none" xmlns="http://www.w3.org/2000/svg">
<g clip-path="url(#clip0_212_1127)">
<path d="M19.299 7.26073C19.3009 7.2468 19.3009 7.23273 19.299 7.21881C19.3008 7.20747 19.3008 7.1959 19.299 7.18453L19.1629 6.20541C19.1433 6.08828 19.0908 5.97879 19.0114 5.8892L18.9881 5.86253L18.9453 5.82063L16.5904 3.83192L16.6564 3.8967C16.6024 3.8333 16.5346 3.78259 16.4579 3.74831C16.3812 3.71402 16.2977 3.69703 16.2134 3.69859H15.4984C15.3821 3.69633 15.2685 3.73257 15.1758 3.80145C15.0785 3.73298 14.9614 3.69693 14.8416 3.69859H14.1266C14.0328 3.69709 13.9403 3.71991 13.8584 3.76473C13.7765 3.80956 13.7082 3.8748 13.6603 3.95384C13.5864 4.06674 13.5587 4.20276 13.5826 4.33482L13.6719 4.952C13.6127 4.91909 13.5457 4.90202 13.4776 4.90248H10.0151C9.89092 4.90324 9.76955 4.93894 9.66539 5.00534C9.56468 5.06714 9.48383 5.15564 9.43223 5.26059L9.16409 5.03581C9.05855 4.94008 8.91925 4.8882 8.77549 4.89105H3.34276C3.21809 4.89327 3.09619 4.92742 2.98914 4.9901C2.84268 5.07414 2.73535 5.21078 2.68991 5.37107L0.964492 11.0286C0.932254 11.1218 0.929082 11.2224 0.955384 11.3174C0.981686 11.4123 1.03627 11.4975 1.11216 11.562C1.13194 11.5784 1.1527 11.5937 1.17434 11.6077C1.17434 11.6077 1.13936 11.5848 1.11993 11.5658L3.4749 13.5583C3.57452 13.6482 3.70477 13.6985 3.84017 13.6992H9.31566C9.4407 13.6961 9.56269 13.6606 9.66929 13.5964C9.72958 13.5641 9.78352 13.5215 9.82861 13.4706L9.84805 13.444L9.87914 13.4059L9.90245 13.364L10.1589 13.5811C10.2571 13.6675 10.3845 13.715 10.5164 13.7145H16.0036C16.1285 13.7104 16.2502 13.675 16.3572 13.6116C16.4161 13.5773 16.4698 13.535 16.5165 13.4859L16.536 13.4592L16.567 13.4211C16.5836 13.397 16.5979 13.3715 16.6098 13.3449C16.6225 13.3218 16.6329 13.2976 16.6409 13.2726L18.2147 8.1065V8.06078C18.2167 8.04305 18.2167 8.02517 18.2147 8.00744V7.97316C18.2166 7.96179 18.2166 7.95023 18.2147 7.93886C18.2165 7.91477 18.2165 7.89058 18.2147 7.86647H18.7199C18.7639 7.87042 18.8081 7.87042 18.852 7.86647H18.887C18.9155 7.85815 18.9429 7.84664 18.9687 7.83219H19.0075L19.0775 7.77885L19.1085 7.75599L19.1629 7.68741V7.66457L19.2018 7.59979C19.1996 7.5872 19.1996 7.5743 19.2018 7.56171C19.1997 7.55552 19.1997 7.54884 19.2018 7.54265C19.2101 7.52031 19.2166 7.49738 19.2212 7.47407C19.2194 7.46655 19.2194 7.45872 19.2212 7.4512C19.2194 7.43986 19.2194 7.42827 19.2212 7.41692C19.2212 7.41692 19.299 7.26834 19.299 7.26073Z" fill="black"/>
<path d="M8.93478 5.32536C8.95541 5.34365 8.96982 5.36769 8.97607 5.39426C8.98234 5.42083 8.98012 5.44864 8.96977 5.47394L7.24824 11.1276C7.22657 11.1894 7.18221 11.241 7.12389 11.2724C7.07643 11.3035 7.02149 11.3219 6.96454 11.3258H1.49297C1.44624 11.3236 1.40197 11.3046 1.36861 11.2724C1.34877 11.2544 1.33484 11.231 1.32861 11.2053C1.32238 11.1795 1.32414 11.1525 1.33364 11.1276L3.05905 5.47394C3.07894 5.41143 3.12189 5.35845 3.17952 5.32536C3.22777 5.29647 3.28244 5.27947 3.33885 5.27583H8.81042C8.85679 5.27627 8.90124 5.29397 8.93478 5.32536ZM6.07852 9.98852L7.10833 6.61306H4.22488L3.19895 9.98852H6.07852ZM14.1577 5.3825C14.1763 5.40377 14.1997 5.42064 14.2259 5.43185C14.2521 5.44306 14.2806 5.44833 14.3092 5.44727H15.0204C15.0475 5.44753 15.0741 5.44102 15.0979 5.42835C15.1217 5.41569 15.1418 5.39728 15.1564 5.37488C15.169 5.35738 15.1779 5.33757 15.1826 5.31663C15.1873 5.29569 15.1876 5.27404 15.1836 5.25297L15.0437 4.24719C15.0304 4.20064 15.0064 4.15766 14.9737 4.12147C14.9551 4.1002 14.9317 4.08333 14.9055 4.07212C14.8793 4.0609 14.8508 4.05564 14.8222 4.0567H14.111C14.0839 4.05644 14.0572 4.06295 14.0335 4.07562C14.0097 4.08828 13.9895 4.10668 13.975 4.12909C13.9478 4.18242 13.9362 4.21671 13.9478 4.24719L14.0916 5.25297C14.099 5.30194 14.1221 5.34732 14.1577 5.3825ZM16.4155 4.23957C16.4021 4.19302 16.3782 4.15003 16.3455 4.11385C16.3276 4.09266 16.305 4.07579 16.2794 4.06456C16.2538 4.05333 16.2259 4.04803 16.1978 4.04908H15.4828C15.4562 4.04834 15.4298 4.05467 15.4066 4.06741C15.3833 4.08016 15.364 4.09884 15.3507 4.12147C15.3248 4.15527 15.3136 4.19772 15.3196 4.23957L15.4634 5.24535C15.4724 5.29381 15.4953 5.33874 15.5294 5.37488C15.5484 5.39573 15.5718 5.41232 15.598 5.4235C15.6242 5.43467 15.6525 5.44018 15.681 5.43964H16.396C16.4226 5.43999 16.4488 5.43349 16.472 5.42078C16.4952 5.40808 16.5146 5.38962 16.5282 5.36726C16.5417 5.35022 16.5511 5.33042 16.5558 5.30932C16.5606 5.28823 16.5604 5.26637 16.5554 5.24535L16.4155 4.23957ZM13.532 5.76348L13.462 5.26821H10.0151C9.96099 5.27113 9.90864 5.28824 9.86355 5.31773C9.83493 5.33304 9.81001 5.35425 9.79055 5.3799C9.77112 5.40555 9.75758 5.43503 9.75087 5.46632L9.46329 6.41113C9.45181 6.43475 9.44789 6.46124 9.45204 6.48708C9.45623 6.51292 9.46826 6.53691 9.4866 6.55591C9.51937 6.58611 9.56214 6.60372 9.60708 6.60544H13.7963L12.7665 9.98091H8.58892C8.53506 9.98211 8.4826 9.99794 8.43738 10.0266C8.38242 10.0608 8.34228 10.1137 8.32468 10.1752L8.03322 11.12C8.02371 11.1443 8.02121 11.1706 8.026 11.1962C8.03082 11.2217 8.04271 11.2455 8.06041 11.2648C8.09216 11.297 8.13526 11.3161 8.18089 11.3181H13.668C13.7248 11.3133 13.7795 11.295 13.8273 11.2648C13.8847 11.2332 13.9278 11.1815 13.9478 11.12L15.5255 5.95397H13.7496C13.7214 5.95451 13.6935 5.94938 13.6674 5.9389C13.6413 5.92841 13.6177 5.91279 13.5981 5.89301C13.5659 5.85846 13.5432 5.81653 13.532 5.7711V5.76348Z" fill="white"/>
</g>
<defs>
<clipPath id="clip0_212_1127">
<rect width="18.3627" height="10.016" fill="white" transform="translate(0.937744 3.69849)"/>
</clipPath>
</defs>
</svg>
