<svg width="17" height="17" viewBox="0 0 17 17" fill="none" xmlns="http://www.w3.org/2000/svg">
<g clip-path="url(#clip0_212_1124)">
<path fill-rule="evenodd" clip-rule="evenodd" d="M5.17742 5.40608L1.84351 8.70648C2.51035 9.36663 3.27212 9.92299 4.10266 10.3583C4.33223 10.9611 4.69207 11.5264 5.18217 12.0116C7.02608 13.8369 10.0156 13.8369 11.8595 12.0116C12.3496 11.5264 12.7095 10.9611 12.939 10.3582C13.7696 9.92299 14.5313 9.36663 15.1982 8.70648L11.8669 5.40877C11.8645 5.4063 11.862 5.40383 11.8595 5.40137C10.0156 3.57601 7.02608 3.57601 5.18217 5.40137C5.18059 5.40294 5.17901 5.40451 5.17742 5.40608ZM11.5405 10.9537C10.5689 11.2783 9.54905 11.4445 8.52084 11.4445C7.49263 11.4445 6.47277 11.2783 5.50121 10.9537C5.60648 11.092 5.7227 11.2246 5.8499 11.3506C7.32503 12.8109 9.71665 12.8109 11.1918 11.3506C11.319 11.2246 11.4352 11.092 11.5405 10.9537ZM5.91838 5.99628C6.16888 6.16012 6.43524 6.30031 6.71395 6.41461C7.2868 6.6495 7.90078 6.7704 8.52084 6.7704C9.14089 6.7704 9.75487 6.6495 10.3277 6.41461C10.6064 6.30031 10.8728 6.16011 11.1233 5.99628C9.6666 4.62414 7.37507 4.62414 5.91838 5.99628Z" fill="#3B4158"/>
</g>
<defs>
<clipPath id="clip0_212_1124">
<rect width="13.3547" height="9.34826" fill="white" transform="translate(1.84351 4.03235)"/>
</clipPath>
</defs>
</svg>
