<svg width="17" height="17" viewBox="0 0 17 17" fill="none" xmlns="http://www.w3.org/2000/svg">
<rect x="0.148926" y="0.893921" width="16.0256" height="16.0256" rx="2.67093" fill="#F5F7FA"/>
<g clip-path="url(#clip0_212_1612)">
<path d="M12.9819 4.79696C12.9819 4.95254 13.1096 5.07866 13.2671 5.07866H13.5523C13.7098 5.07866 13.8375 4.95254 13.8375 4.79696C13.8375 4.64138 13.7098 4.51526 13.5523 4.51526H13.2671C13.1096 4.51526 12.9819 4.64138 12.9819 4.79696Z" fill="#212326"/>
<path d="M4.71177 13.5297H6.09712L5.69381 13.1313C5.58685 13.0256 5.44178 12.9663 5.29052 12.9663H4.71177C2.50677 12.9663 0.719281 11.2006 0.719281 9.02246C0.719281 6.84435 2.50677 5.07866 4.71177 5.07866H9.27461C11.4796 5.07866 13.2671 6.84435 13.2671 9.02246C13.2671 11.2006 11.4796 12.9663 9.27461 12.9663H7.56774C7.34083 12.9663 7.12323 12.8772 6.96278 12.7187L6.4903 12.252C6.22289 11.9879 5.86019 11.8395 5.48202 11.8395H4.71177C3.13677 11.8395 1.85999 10.5783 1.85999 9.02246C1.85999 7.46666 3.13677 6.20546 4.71177 6.20546H9.27461C10.8496 6.20546 12.1264 7.46666 12.1264 9.02246C12.1264 10.5783 10.8496 11.8395 9.27461 11.8395H8.17864C7.95173 11.8395 7.73413 11.7504 7.57368 11.5919L7.10117 11.1252C6.83377 10.8611 6.47109 10.7127 6.09292 10.7127H4.71177C3.76678 10.7127 3.0007 9.95592 3.0007 9.02246C3.0007 8.08899 3.76678 7.33226 4.71177 7.33226H9.27461C10.2196 7.33226 10.9857 8.08899 10.9857 9.02246C10.9857 9.94454 10.2382 10.6942 9.30911 10.7123L9.30892 10.7127H8.89158C8.66467 10.7127 8.44707 10.6236 8.28662 10.4651L7.81411 9.9984C7.59471 9.78165 7.31115 9.64285 7.00752 9.60001L6.99319 9.58586H4.71177C4.39677 9.58586 4.14141 9.33361 4.14141 9.02246C4.14141 8.7113 4.39677 8.45906 4.71177 8.45906H9.27461C9.58961 8.45906 9.84497 8.7113 9.84497 9.02246C9.84497 9.33361 9.58961 9.58586 9.27461 9.58586H8.1339L8.53721 9.98425C8.64416 10.0899 8.78924 10.1493 8.9405 10.1493H9.27461C9.9046 10.1493 10.4153 9.64477 10.4153 9.02246C10.4153 8.40015 9.9046 7.89566 9.27461 7.89566H4.71177C4.08178 7.89566 3.57106 8.40015 3.57106 9.02246C3.57106 9.64477 4.08178 10.1493 4.71177 10.1493H6.80586C7.03277 10.1493 7.25038 10.2383 7.41083 10.3968L7.88333 10.8635C8.15074 11.1277 8.51342 11.2761 8.89158 11.2761H9.4172V11.2717C10.6108 11.199 11.556 10.2198 11.556 9.02246C11.556 7.77784 10.5346 6.76886 9.27461 6.76886H4.71177C3.45179 6.76886 2.43035 7.77784 2.43035 9.02246C2.43035 10.2671 3.45179 11.2761 4.71177 11.2761H6.09292C6.31983 11.2761 6.53743 11.3651 6.69788 11.5236L7.17039 11.9903C7.43779 12.2545 7.80047 12.4029 8.17864 12.4029H9.27461C11.1646 12.4029 12.6967 10.8894 12.6967 9.02246C12.6967 7.15551 11.1646 5.64206 9.27461 5.64206H4.71177C2.82177 5.64206 1.28964 7.15551 1.28964 9.02246C1.28964 10.8894 2.82177 12.4029 4.71177 12.4029H5.48202C5.70893 12.4029 5.92653 12.4919 6.08699 12.6504L6.55949 13.1171C6.8269 13.3813 7.18957 13.5297 7.56774 13.5297H9.27461C11.7946 13.5297 13.8375 11.5117 13.8375 9.02246C13.8375 6.5332 11.7946 4.51526 9.27461 4.51526L4.71177 4.51526C2.19178 4.51526 0.148926 6.5332 0.148926 9.02246C0.148926 11.5117 2.19178 13.5297 4.71177 13.5297Z" fill="#212326"/>
</g>
<defs>
<clipPath id="clip0_212_1612">
<rect width="13.6885" height="9.0144" fill="white" transform="translate(0.148926 4.51526)"/>
</clipPath>
</defs>
</svg>
