<svg width="20" height="17" viewBox="0 0 20 17" fill="none" xmlns="http://www.w3.org/2000/svg">
<rect x="0.720703" y="0.893921" width="16.0256" height="16.0256" rx="2.67093" fill="#F5F7FA"/>
<g clip-path="url(#clip0_212_1592)">
<path d="M19.0819 7.40977C19.0838 7.39585 19.0838 7.38178 19.0819 7.36786C19.0837 7.35651 19.0837 7.34494 19.0819 7.33358L18.9459 6.35446C18.9263 6.23732 18.8738 6.12784 18.7944 6.03825L18.771 6.01158L18.7283 5.96967L16.3733 3.98097L16.4394 4.04574C16.3854 3.98235 16.3175 3.93164 16.2408 3.89735C16.1642 3.86307 16.0806 3.84608 15.9964 3.84763H15.2813C15.1651 3.84538 15.0515 3.88162 14.9588 3.9505C14.8615 3.88203 14.7444 3.84598 14.6246 3.84763H13.9096C13.8158 3.84614 13.7233 3.86896 13.6414 3.91378C13.5595 3.95861 13.4911 4.02384 13.4432 4.10289C13.3694 4.21578 13.3416 4.35181 13.3655 4.48387L13.4549 5.10105C13.3957 5.06814 13.3287 5.05106 13.2606 5.05152H9.79811C9.67388 5.05229 9.55251 5.08799 9.44835 5.15438C9.34763 5.21619 9.26679 5.30468 9.21519 5.40964L8.94705 5.18486C8.84151 5.08913 8.70221 5.03724 8.55845 5.04009H3.12572C3.00105 5.04232 2.87915 5.07646 2.7721 5.13915C2.62564 5.22319 2.51831 5.35983 2.47287 5.52012L0.747451 11.1776C0.715213 11.2709 0.712041 11.3714 0.738343 11.4664C0.764645 11.5614 0.81923 11.6466 0.895124 11.711C0.914899 11.7274 0.935664 11.7427 0.957302 11.7567C0.957302 11.7567 0.922322 11.7339 0.902892 11.7148L3.25786 13.7073C3.35748 13.7972 3.48773 13.8475 3.62313 13.8483H9.09862C9.22366 13.8451 9.34564 13.8096 9.45225 13.7454C9.51254 13.7131 9.56648 13.6705 9.61157 13.6197L9.63101 13.593L9.6621 13.5549L9.6854 13.513L9.9419 13.7302C10.0401 13.8165 10.1675 13.864 10.2994 13.8635H15.7865C15.9114 13.8594 16.0332 13.824 16.1402 13.7607C16.1991 13.7264 16.2527 13.684 16.2995 13.6349L16.3189 13.6083L16.35 13.5702C16.3665 13.5461 16.3809 13.5206 16.3927 13.494C16.4054 13.4709 16.4159 13.4466 16.4238 13.4216L17.9977 8.25555V8.20983C17.9996 8.1921 17.9996 8.17422 17.9977 8.15649V8.12221C17.9996 8.11084 17.9996 8.09927 17.9977 8.08791C17.9995 8.06382 17.9995 8.03963 17.9977 8.01552H18.5029C18.5468 8.01947 18.5911 8.01947 18.635 8.01552H18.67C18.6984 8.0072 18.7258 7.99568 18.7516 7.98124H18.7905L18.8604 7.9279L18.8915 7.90504L18.9459 7.83645V7.81362L18.9848 7.74884C18.9826 7.73624 18.9826 7.72335 18.9848 7.71075C18.9827 7.70457 18.9827 7.69788 18.9848 7.6917C18.993 7.66936 18.9995 7.64643 19.0042 7.62311C19.0024 7.6156 19.0024 7.60776 19.0042 7.60025C19.0023 7.58891 19.0023 7.57732 19.0042 7.56597C19.0042 7.56597 19.0819 7.41739 19.0819 7.40977Z" fill="black"/>
<path d="M8.71774 5.4744C8.73837 5.49269 8.75278 5.51674 8.75903 5.54331C8.7653 5.56988 8.76308 5.59768 8.75273 5.62298L7.0312 11.2767C7.00952 11.3384 6.96517 11.39 6.90685 11.4215C6.85938 11.4526 6.80445 11.471 6.7475 11.4748H1.27593C1.2292 11.4726 1.18493 11.4536 1.15157 11.4215C1.13173 11.4035 1.1178 11.3801 1.11157 11.3543C1.10534 11.3285 1.10709 11.3015 1.1166 11.2767L2.84201 5.62298C2.86189 5.56048 2.90485 5.50749 2.96248 5.4744C3.01073 5.44551 3.0654 5.42852 3.12181 5.42488H8.59338C8.63975 5.42531 8.6842 5.44302 8.71774 5.4744ZM5.86148 10.1376L6.89129 6.7621H4.00784L2.98191 10.1376H5.86148ZM13.9406 5.53155C13.9593 5.55282 13.9826 5.56968 14.0089 5.5809C14.0351 5.59211 14.0636 5.59738 14.0922 5.59631H14.8033C14.8304 5.59657 14.8571 5.59006 14.8809 5.5774C14.9047 5.56473 14.9248 5.54633 14.9393 5.52393C14.952 5.50643 14.9609 5.48662 14.9656 5.46568C14.9702 5.44474 14.9706 5.42309 14.9665 5.40202L14.8266 4.39624C14.8133 4.34969 14.7894 4.3067 14.7567 4.27051C14.738 4.24924 14.7147 4.23238 14.6885 4.22117C14.6622 4.20995 14.6337 4.20468 14.6051 4.20575H13.894C13.8669 4.20549 13.8402 4.212 13.8164 4.22467C13.7926 4.23733 13.7725 4.25573 13.758 4.27814C13.7308 4.33147 13.7191 4.36576 13.7308 4.39624L13.8746 5.40202C13.8819 5.45099 13.9051 5.49637 13.9406 5.53155ZM16.1984 4.38862C16.1851 4.34207 16.1612 4.29908 16.1285 4.26289C16.1106 4.2417 16.0879 4.22484 16.0623 4.21361C16.0367 4.20238 16.0088 4.19708 15.9808 4.19813H15.2658C15.2391 4.19738 15.2128 4.20372 15.1895 4.21646C15.1663 4.22921 15.147 4.24789 15.1337 4.27051C15.1078 4.30431 15.0966 4.34677 15.1026 4.38862L15.2463 5.3944C15.2554 5.44285 15.2783 5.48779 15.3124 5.52393C15.3314 5.54478 15.3548 5.56137 15.381 5.57254C15.4071 5.58372 15.4354 5.58923 15.4639 5.58869H16.179C16.2056 5.58904 16.2317 5.58253 16.2549 5.56983C16.2781 5.55712 16.2975 5.53867 16.3111 5.51631C16.3246 5.49927 16.3341 5.47946 16.3388 5.45837C16.3435 5.43728 16.3433 5.41542 16.3383 5.3944L16.1984 4.38862ZM13.315 5.91253L13.245 5.41726H9.79807C9.74395 5.42018 9.6916 5.43728 9.6465 5.46678C9.61789 5.48208 9.59297 5.50329 9.57351 5.52894C9.55408 5.5546 9.54054 5.58408 9.53383 5.61536L9.24625 6.56018C9.23477 6.58379 9.23085 6.61029 9.235 6.63613C9.23919 6.66197 9.25122 6.68596 9.26956 6.70496C9.30233 6.73516 9.3451 6.75276 9.39004 6.75449H13.5792L12.5494 10.13H8.37188C8.31802 10.1312 8.26556 10.147 8.22034 10.1757C8.16538 10.2099 8.12523 10.2628 8.10764 10.3242L7.81618 11.2691C7.80667 11.2933 7.80417 11.3197 7.80896 11.3452C7.81378 11.3708 7.82567 11.3945 7.84337 11.4138C7.87512 11.4461 7.91822 11.4651 7.96385 11.4672H13.451C13.5077 11.4624 13.5624 11.4441 13.6103 11.4138C13.6677 11.3822 13.7107 11.3305 13.7308 11.2691L15.3085 6.10302H13.5326C13.5044 6.10356 13.4764 6.09843 13.4504 6.08795C13.4243 6.07746 13.4007 6.06184 13.381 6.04206C13.3489 6.00751 13.3262 5.96558 13.315 5.92015V5.91253Z" fill="white"/>
</g>
<defs>
<clipPath id="clip0_212_1592">
<rect width="18.3627" height="10.016" fill="white" transform="translate(0.720703 3.84753)"/>
</clipPath>
</defs>
</svg>
