<svg width="17" height="17" viewBox="0 0 17 17" fill="none" xmlns="http://www.w3.org/2000/svg">
<rect x="0.434814" y="0.893921" width="16.0256" height="16.0256" rx="2.67093" fill="#F5F7FA"/>
<g clip-path="url(#clip0_212_1596)">
<path d="M15.1237 5.3715C15.1237 5.38279 15.1237 5.3969 15.1208 5.40537C15.1061 5.51544 15.1061 5.62551 15.1149 5.7384C15.1208 5.76662 15.1267 5.79485 15.1502 5.81743C15.1884 5.85976 15.2472 5.85129 15.2708 5.80049C15.2825 5.77509 15.2825 5.74969 15.2766 5.72429C15.2472 5.61704 15.2413 5.50415 15.2384 5.39408C15.2384 5.38843 15.2384 5.37996 15.2384 5.3715C15.2708 5.36868 15.3002 5.36585 15.3266 5.36585C15.3472 5.36303 15.3649 5.36021 15.3796 5.35174C15.4237 5.32916 15.4237 5.28118 15.3766 5.25861C15.359 5.25014 15.3355 5.24731 15.3149 5.24731C15.2413 5.25014 15.1678 5.25014 15.0943 5.25014C15.0679 5.25014 15.0414 5.25296 15.0149 5.25578C15.0002 5.25861 14.9826 5.25861 14.9708 5.26707C14.9502 5.27554 14.9385 5.28965 14.9385 5.30941C14.9414 5.32916 14.9502 5.34045 14.9708 5.34892C14.9826 5.35739 14.9973 5.36021 15.012 5.36021C15.0473 5.36303 15.0855 5.36868 15.1237 5.3715ZM15.9324 5.50133C15.9324 5.50415 15.9353 5.50697 15.9353 5.50697C15.9471 5.58317 15.9589 5.65655 15.9677 5.72993C15.9706 5.75533 15.9736 5.77791 15.9912 5.79767C16.0294 5.84565 16.0883 5.84 16.1147 5.7892C16.1265 5.7638 16.1294 5.7384 16.1235 5.71018C16.1059 5.62551 16.0971 5.54084 16.0794 5.45899C16.0677 5.40819 16.053 5.36021 16.0383 5.31505C16.0294 5.28683 16.0089 5.26707 15.9736 5.26425C15.9383 5.25861 15.9118 5.27554 15.8971 5.30094C15.8795 5.32352 15.8648 5.3461 15.853 5.3715C15.8324 5.41665 15.8148 5.46181 15.7913 5.50415C15.7883 5.51544 15.7854 5.5239 15.7795 5.53237C15.7765 5.52673 15.7736 5.5239 15.7736 5.5239C15.7354 5.45335 15.7001 5.38279 15.6619 5.31505C15.656 5.30941 15.653 5.30376 15.6501 5.29812C15.6325 5.27272 15.6119 5.25861 15.5795 5.25861C15.5501 5.26143 15.5266 5.27836 15.5119 5.30376C15.506 5.31505 15.506 5.32352 15.5031 5.33481C15.4913 5.42512 15.4766 5.51544 15.4648 5.60575C15.4589 5.65655 15.456 5.70735 15.456 5.75816C15.4531 5.76945 15.456 5.78356 15.4619 5.79485C15.4678 5.81742 15.4854 5.83154 15.5089 5.83436C15.5383 5.83718 15.5589 5.82872 15.5678 5.80614C15.5766 5.7892 15.5795 5.77509 15.5825 5.76098C15.5942 5.71018 15.603 5.6622 15.6119 5.61422C15.6177 5.586 15.6207 5.56342 15.6295 5.53237C15.6354 5.54366 15.6413 5.55213 15.6472 5.56059C15.6736 5.59446 15.7001 5.62833 15.7324 5.65655C15.7648 5.67913 15.7913 5.67631 15.8177 5.65091C15.8236 5.64526 15.8265 5.64244 15.8324 5.6368C15.8589 5.59728 15.8912 5.55777 15.9177 5.51826C15.9236 5.51261 15.9265 5.50697 15.9324 5.50133Z" fill="#3A3B7B"/>
<path d="M9.15699 5.42703C9.13654 5.48067 9.13264 5.51931 9.14208 5.55143C9.15251 5.5951 9.17956 5.6094 9.21628 5.59829C9.56168 5.51632 10.3191 5.749 10.5995 5.81385C10.6656 5.82747 10.7194 5.74553 10.6743 5.67207C10.6084 5.60093 9.85137 5.29634 9.56251 5.27974C9.44928 5.2736 9.24686 5.24573 9.15699 5.42703Z" fill="#3A3B7B"/>
<path d="M12.117 4.44106C12.1538 4.46145 12.1744 4.4809 12.1845 4.50264C12.1997 4.53114 12.1917 4.55087 12.1663 4.56093C11.9379 4.66788 11.6341 5.12831 11.5115 5.28711C11.4818 5.32364 11.4132 5.30241 11.4028 5.24234C11.405 5.17442 11.6743 4.67475 11.8246 4.53865C11.8836 4.48552 11.9812 4.38126 12.117 4.44106Z" fill="#3A3B7B"/>
<path d="M10.2987 4.21436C10.3429 4.18237 10.3889 4.17116 10.4124 4.19195C10.7568 4.4747 10.9395 4.92246 11.0526 5.33238C11.0569 5.34193 11.0572 5.35563 11.0537 5.36993C11.0523 5.38215 11.043 5.39505 11.0283 5.40504C11.0125 5.41607 10.9989 5.41943 10.9925 5.40992C10.8415 5.21283 9.97922 4.44599 10.2987 4.21436Z" fill="#3A3B7B"/>
<path d="M3.004 9.11655C3.08656 9.05755 3.17632 9.00844 3.2713 8.97033C3.37067 8.94306 3.47659 8.94757 3.57305 8.98322C3.66949 9.01887 3.75124 9.08367 3.80589 9.16786C3.85478 9.25183 3.8739 9.34879 3.86041 9.44411C3.84691 9.53942 3.80152 9.62794 3.73104 9.69635C3.67641 9.75181 3.61438 9.80011 3.54662 9.84002C3.24458 10.0273 2.93984 10.2043 2.63512 10.3916C2.57277 10.4385 2.50663 10.4805 2.43732 10.5173C2.3319 10.5678 2.21143 10.5813 2.09672 10.5555C1.98202 10.5298 1.88031 10.4663 1.80917 10.3762C1.75599 10.3124 1.71111 10.2426 1.67552 10.1684C1.38683 9.58604 1.08746 9.00624 0.809468 8.4136C0.681163 8.15707 0.576917 7.86203 0.475343 7.57727C0.431398 7.49453 0.422816 7.39861 0.451426 7.30988C0.480036 7.22116 0.543579 7.14665 0.62854 7.1022C0.713502 7.05775 0.813176 7.04688 0.906367 7.07188C0.999558 7.09688 1.07891 7.15578 1.12755 7.23606C1.27706 7.42675 1.40941 7.62931 1.52316 7.84152C1.81184 8.35461 2.08716 8.8677 2.36515 9.3654C2.38134 9.39291 2.39919 9.41945 2.41861 9.44493C2.62785 9.36049 2.82464 9.2501 3.004 9.11655Z" fill="#3A3B7B"/>
<path d="M5.98877 8.93756C5.32855 9.67897 4.22193 9.49168 3.66595 8.53733C3.27034 7.86005 3.20084 6.7415 4.06156 6.03599C4.24535 5.88829 4.46513 5.78767 4.70039 5.74353C4.98885 5.70384 5.283 5.75268 5.5408 5.88308C5.79859 6.01347 6.00684 6.21874 6.1358 6.46956C6.60624 7.29052 6.53942 8.33722 5.98877 8.93756ZM5.72147 7.20842C5.65133 7.00668 5.51062 6.83445 5.3232 6.72097C5.21714 6.64842 5.08827 6.61314 4.9583 6.62109C4.8283 6.62903 4.70514 6.67971 4.60951 6.76458C4.22729 7.09041 4.14708 7.86262 4.42507 8.32184C4.46051 8.39672 4.51254 8.46327 4.57757 8.51683C4.6426 8.57039 4.71904 8.60966 4.80154 8.63189C4.88403 8.65414 4.97058 8.6588 5.05516 8.64558C5.13974 8.63233 5.22026 8.60152 5.29114 8.55529C5.49834 8.4011 5.65035 8.1888 5.72602 7.94789C5.80173 7.70696 5.79733 7.44939 5.71347 7.21099L5.72147 7.20842Z" fill="#3A3B7B"/>
<path d="M8.68308 7.53174C8.61549 7.54569 8.54566 7.54652 8.47772 7.53418C8.4098 7.52183 8.3451 7.49659 8.28749 7.45991C8.23707 7.43223 8.19368 7.39418 8.16041 7.34848C8.12717 7.30278 8.10488 7.25058 8.09518 7.19561C8.08545 7.14067 8.08856 7.08433 8.10423 7.03066C8.11992 6.97699 8.14783 6.92733 8.18592 6.88523C8.25227 6.80065 8.34647 6.74009 8.45322 6.71335C8.73192 6.63572 9.01884 6.58839 9.30857 6.57226C9.37224 6.56515 9.43673 6.57032 9.49826 6.58746C9.55982 6.60463 9.61716 6.63339 9.66697 6.67212C9.71676 6.71082 9.75801 6.75871 9.78827 6.81293C9.81851 6.86715 9.83718 6.92662 9.84317 6.98786C9.92669 7.28867 9.93584 7.60407 9.86989 7.90888C9.62933 8.89401 8.8007 9.23264 7.87049 8.91709C7.60938 8.83273 7.38044 8.67553 7.21294 8.46558C6.98954 8.21274 6.83114 7.9131 6.75051 7.59075C6.68519 7.3037 6.69234 7.00584 6.7714 6.722C6.85044 6.43816 6.99909 6.17658 7.20492 5.9591C7.40026 5.72274 7.65379 5.53671 7.94268 5.41779C8.12522 5.32122 8.33882 5.29376 8.54143 5.34082C8.58738 5.35303 8.6291 5.37682 8.66225 5.40972C8.69541 5.44262 8.71879 5.48343 8.72997 5.52793C8.74116 5.57242 8.73973 5.61898 8.72585 5.66277C8.71195 5.70656 8.68613 5.74598 8.65102 5.77696C8.58427 5.83495 8.51175 5.88651 8.4345 5.93088C8.19686 6.07613 7.99006 6.26329 7.82505 6.48246C7.71689 6.62428 7.6424 6.78714 7.60685 6.95954C7.57127 7.13195 7.57551 7.30975 7.61925 7.48044C7.67986 7.71317 7.81438 7.92206 8.00414 8.07818C8.5922 8.59129 9.35668 8.09614 9.22303 7.39577C9.02792 7.44196 8.85683 7.4907 8.68308 7.53174Z" fill="#3A3B7B"/>
<path d="M12.2758 8.97867C11.4071 9.49177 10.4181 8.97867 10.2015 7.90118C10.0438 7.13154 10.3432 6.05403 11.391 5.64355C11.614 5.5581 11.8558 5.52809 12.094 5.55633C12.3803 5.60662 12.6429 5.74187 12.8447 5.94301C13.0466 6.14414 13.1777 6.40102 13.2193 6.67744C13.3958 7.59331 12.9948 8.57076 12.2758 8.97867ZM12.5778 7.2521C12.5776 7.03898 12.499 6.83275 12.356 6.66974C12.2795 6.56892 12.169 6.49667 12.0432 6.46532C11.9174 6.43398 11.7843 6.44547 11.6663 6.49786C11.1959 6.69282 10.8644 7.4009 10.9847 7.92171C10.9939 8.00343 11.0216 8.08225 11.0658 8.15265C11.11 8.22304 11.1698 8.28331 11.2408 8.32926C11.3118 8.37518 11.3924 8.40568 11.477 8.4186C11.5616 8.43149 11.6481 8.42652 11.7305 8.40401C11.9792 8.32063 12.1945 8.16482 12.3464 7.9583C12.4983 7.75179 12.5792 7.50489 12.5778 7.2521Z" fill="#3A3B7B"/>
<path d="M14.0977 9.19412C14.0846 9.28802 14.0332 9.37307 13.9547 9.43057C13.8763 9.48804 13.7772 9.51328 13.6794 9.50069C13.5816 9.48811 13.493 9.43873 13.4331 9.36343C13.3731 9.28815 13.3469 9.19309 13.36 9.09919C13.3731 9.0053 13.4246 8.92025 13.503 8.86275C13.5814 8.80525 13.6805 8.78004 13.7783 8.79262C13.8761 8.80521 13.9648 8.85457 14.0247 8.92987C14.0846 9.00517 14.1109 9.10023 14.0977 9.19412ZM13.8652 5.73328C13.916 5.65876 13.9906 5.60202 14.0778 5.5715C14.165 5.54099 14.2601 5.53834 14.349 5.56396C14.4394 5.58566 14.5192 5.6365 14.5752 5.70795C14.6311 5.77941 14.6598 5.86715 14.6564 5.95648C14.6446 6.09977 14.6223 6.24208 14.5896 6.38234C14.5014 6.85697 14.4158 7.33157 14.3223 7.80106C14.2795 7.98835 14.2234 8.16793 14.1619 8.35776C14.1405 8.41711 14.1048 8.47074 14.0576 8.51426C14.0283 8.54701 13.9909 8.57211 13.9488 8.58727C13.9067 8.60246 13.8613 8.60719 13.8168 8.60105C13.7723 8.59491 13.7302 8.5781 13.6942 8.55218C13.6583 8.52623 13.6298 8.49202 13.6113 8.45269C13.5795 8.38214 13.5622 8.30634 13.5605 8.2295C13.5605 7.91137 13.5605 7.5907 13.5818 7.27C13.6182 6.81234 13.6897 6.35787 13.7957 5.9103C13.8082 5.85034 13.8317 5.793 13.8652 5.74098V5.73328Z" fill="#3A3B7B"/>
<path fill-rule="evenodd" clip-rule="evenodd" d="M1.87477 11.2557C1.84321 11.3233 1.83455 11.3987 1.84998 11.4712C1.86024 11.5668 1.88277 11.6609 1.91707 11.7513C1.95989 11.8619 2.00781 11.9713 2.06689 12.1062C2.08048 12.1372 2.09467 12.1696 2.10953 12.2037C2.18921 12.3864 2.28918 12.6198 2.42252 12.9577C2.46026 13.0537 2.49378 13.1505 2.52753 13.2479C2.54116 13.2873 2.55485 13.3268 2.56885 13.3664C2.61906 13.5071 2.70544 13.6335 2.81995 13.7338C2.86857 13.7888 2.93306 13.829 3.00538 13.849C3.07911 13.8695 3.15752 13.8682 3.23047 13.8453C3.30341 13.8224 3.36748 13.779 3.41435 13.7206C3.4603 13.6634 3.48763 13.5945 3.49294 13.5225C3.52276 13.3823 3.51258 13.2368 3.46344 13.1016C3.38546 12.8771 3.29662 12.6523 3.19417 12.4323L3.1937 12.4314C3.02517 12.0873 2.85386 11.7456 2.67445 11.4038L2.67311 11.4014C2.62058 11.3123 2.55233 11.2327 2.4714 11.1661C2.41887 11.1067 2.3464 11.0666 2.26637 11.0528C2.18464 11.0387 2.10034 11.0529 2.02853 11.0929C1.9606 11.1302 1.90675 11.1871 1.87477 11.2557Z" fill="#3A3B7B"/>
<path fill-rule="evenodd" clip-rule="evenodd" d="M4.44866 10.4085C4.18441 10.3428 3.90844 10.3332 3.63997 10.3804C3.43203 10.4001 3.22753 10.4461 3.08552 10.5373C3.01329 10.5837 2.95489 10.6433 2.92241 10.7191C2.88975 10.7952 2.88558 10.8823 2.91235 10.9794C2.96122 11.1571 3.02468 11.3299 3.08791 11.5022L3.09816 11.5301L3.09841 11.5307C3.28881 12.0312 3.48104 12.53 3.67501 13.0271C3.69763 13.1054 3.72962 13.181 3.77033 13.2522L3.77109 13.2536C3.82487 13.3421 3.89384 13.4213 3.9751 13.4878C4.01574 13.5244 4.066 13.5497 4.1205 13.561C4.17553 13.5724 4.23276 13.5691 4.28596 13.5514C4.33917 13.5337 4.38629 13.5024 4.42221 13.4608C4.45753 13.4198 4.48067 13.3705 4.48916 13.318C4.52422 13.1753 4.51299 13.0258 4.45695 12.8895C4.43947 12.8436 4.42575 12.7967 4.41129 12.7473C4.40647 12.7309 4.40158 12.7141 4.39643 12.6971C4.84043 12.5305 5.31287 12.3065 5.479 11.7854C5.54405 11.6054 5.54948 11.4104 5.49451 11.2272C5.4395 11.0439 5.32663 10.8813 5.17146 10.762C4.96027 10.595 4.71358 10.4743 4.44866 10.4085ZM3.71619 11.0476C3.72493 11.0452 3.73374 11.0429 3.74257 11.0409C4.03164 10.9972 4.32738 11.0554 4.57536 11.2045C4.68464 11.2774 4.7294 11.3585 4.73709 11.4364C4.74503 11.5167 4.71461 11.6037 4.6535 11.6874C4.53803 11.8454 4.32732 11.9718 4.13697 11.9954C3.99821 11.6887 3.8573 11.3696 3.71619 11.0476Z" fill="#3A3B7B"/>
<path d="M6.21031 9.84705C6.52499 9.70756 6.9148 9.68347 7.21982 9.78154C7.29664 9.80302 7.36329 9.84947 7.40837 9.91295C7.45316 9.97604 7.47383 10.0521 7.46692 10.1281C7.46647 10.1774 7.45385 10.226 7.43011 10.2697C7.40595 10.3143 7.37096 10.3527 7.3281 10.3815C7.28523 10.4104 7.23576 10.4289 7.18387 10.4355C7.13195 10.4422 7.07916 10.4367 7.02991 10.4196L7.02616 10.4183L7.02264 10.4166C6.99745 10.4039 6.97068 10.3944 6.943 10.3882L6.94125 10.3878C6.72668 10.3331 6.52428 10.4237 6.45034 10.5351C6.41508 10.5882 6.41071 10.6418 6.44008 10.6906C6.47153 10.7428 6.54867 10.8014 6.70475 10.8431C6.74768 10.8545 6.79168 10.8654 6.83632 10.8765C6.95974 10.9071 7.08801 10.939 7.21204 10.9832L7.21251 10.9833C7.78472 11.1923 7.9978 11.6251 7.92485 12.0321C7.85269 12.4346 7.50243 12.801 6.9757 12.8874C6.78404 12.9282 6.58458 12.9202 6.39706 12.8644C6.20907 12.8083 6.03963 12.7061 5.90555 12.5677L5.90205 12.5641C5.85973 12.5119 5.83126 12.4507 5.81864 12.3857C5.80703 12.3271 5.81315 12.2665 5.83624 12.2111C5.85919 12.156 5.89802 12.1083 5.94812 12.0735C6.00105 12.0341 6.06484 12.0105 6.13162 12.0056C6.19818 12.0007 6.26478 12.0145 6.32322 12.0455C6.38159 12.0726 6.43589 12.1071 6.48462 12.1481L6.48554 12.1489C6.57175 12.2246 6.67606 12.2443 6.77608 12.226C6.87756 12.2075 6.97299 12.1499 7.03437 12.0734C7.09534 11.9974 7.11982 11.9071 7.09077 11.8195C7.06154 11.7313 6.97364 11.6324 6.78052 11.5497C6.73004 11.5291 6.6777 11.5125 6.62325 11.4964C6.60856 11.492 6.59363 11.4877 6.57852 11.4833C6.53826 11.4716 6.49684 11.4595 6.45622 11.4462C6.42824 11.437 6.40049 11.4283 6.37301 11.4197C6.29789 11.3963 6.22465 11.3734 6.15417 11.3427C6.00078 11.2925 5.86825 11.1963 5.77632 11.0682C5.68401 10.9395 5.63756 10.7857 5.64388 10.6296C5.64437 10.2493 5.89394 9.98731 6.21031 9.84705Z" fill="#3A3B7B"/>
<path d="M10.1999 9.80657C10.1389 9.77797 10.0714 9.76439 10.0036 9.76705C9.93574 9.76974 9.86965 9.78857 9.8113 9.82191C9.75331 9.85501 9.70475 9.90135 9.66996 9.95682C9.63806 10.0035 9.61598 10.0558 9.60498 10.1106C9.59397 10.1654 9.59424 10.2218 9.60574 10.2765C9.6171 10.3467 9.6297 10.4151 9.64214 10.4825C9.66274 10.594 9.68279 10.7031 9.69601 10.8142L9.6965 10.8171C9.72661 10.9914 9.74237 11.1677 9.74378 11.3444L9.74392 11.3469C9.7542 11.5378 9.68646 11.7249 9.55521 11.8686L9.55313 11.8711C9.51042 11.9236 9.45333 11.9637 9.38821 11.9869C9.32311 12.0101 9.25259 12.0154 9.18451 12.0023C9.11643 11.9892 9.0535 11.9581 9.00275 11.9127C8.952 11.8672 8.91539 11.8089 8.89712 11.7446C8.85812 11.6091 8.83554 11.4697 8.82981 11.3293L8.89643 10.3113C8.89741 10.298 8.89854 10.2844 8.89968 10.2706C8.90221 10.2397 8.90481 10.2082 8.90589 10.1788C8.90746 10.1356 8.90611 10.0911 8.89562 10.0491C8.88488 10.0061 8.86446 9.96516 8.82824 9.93033C8.79237 9.89585 8.74395 9.87041 8.68302 9.85309C8.57284 9.82248 8.47968 9.82345 8.40205 9.85507C8.32437 9.88669 8.27116 9.9454 8.2335 10.0132C8.19613 10.0805 8.17212 10.1601 8.15396 10.2398C8.14049 10.299 8.12966 10.3611 8.11937 10.4202C8.11581 10.4406 8.11233 10.4606 8.10882 10.4801L8.10873 10.4806C8.05367 10.8049 8.03728 11.1341 8.05988 11.462C8.06409 11.6391 8.10258 11.814 8.17342 11.9776C8.25334 12.1888 8.39808 12.3717 8.58856 12.5023C8.77943 12.6332 9.00721 12.7053 9.24174 12.7091C9.47626 12.7129 9.70646 12.6483 9.90184 12.5237C10.0969 12.3993 10.2481 12.221 10.3354 12.0124C10.4575 11.7467 10.5148 11.4577 10.503 11.1675C10.4958 10.9557 10.4838 10.7422 10.4719 10.5298C10.466 10.4256 10.4601 10.3216 10.4549 10.2183C10.4522 10.1147 10.4166 10.0143 10.3528 9.93066C10.3134 9.87778 10.2608 9.83513 10.1999 9.80657Z" fill="#3A3B7B"/>
<path d="M12.3597 11.4028C12.3536 11.4104 12.347 11.4182 12.3402 11.4263C12.2906 11.1515 12.2446 10.8768 12.1985 10.6017C12.182 10.503 12.1654 10.4038 12.1487 10.305L12.1468 10.2939L12.1407 10.2844C12.1292 10.2665 12.1281 10.2489 12.1281 10.2114V10.2071L12.1274 10.2028C12.1149 10.1253 12.0784 10.0533 12.0227 9.99603C11.9671 9.93892 11.8949 9.89918 11.8154 9.88193C11.7362 9.86316 11.6528 9.8673 11.576 9.89384C11.4993 9.92031 11.4325 9.96788 11.3838 10.0306C11.3434 10.0787 11.3102 10.1321 11.2854 10.1891C11.229 10.312 11.1722 10.4352 11.1151 10.5587L11.1141 10.5608C10.9718 10.8692 10.8284 11.1796 10.6893 11.4925L10.6888 11.4935C10.6034 11.6964 10.5329 11.9101 10.4626 12.1232C10.4486 12.1657 10.4345 12.2083 10.4204 12.2507C10.395 12.3179 10.3839 12.3893 10.3877 12.4607C10.3831 12.5247 10.3991 12.5884 10.4335 12.6434C10.4685 12.6995 10.521 12.7437 10.5836 12.7697C10.6499 12.7976 10.724 12.8035 10.7943 12.7865C10.8643 12.7695 10.9266 12.7307 10.9712 12.6762C11.0281 12.6089 11.0771 12.5356 11.117 12.4579C11.2349 12.2265 11.3476 11.9922 11.4597 11.759C11.5031 11.6687 11.5453 11.5879 11.5933 11.4999C11.5966 11.5108 11.5999 11.5214 11.6034 11.532C11.6537 11.7444 11.7386 11.9479 11.8549 12.135C11.8769 12.1747 11.9076 12.2093 11.9448 12.2366C11.9824 12.2642 12.0259 12.2835 12.0721 12.2934C12.1184 12.3032 12.1663 12.3032 12.2126 12.2935C12.2588 12.2838 12.3024 12.2644 12.3401 12.2369L12.4146 12.1833L12.9935 11.7154L12.9593 11.9247C12.9123 12.2125 12.8657 12.4979 12.8161 12.7834C12.7837 12.9099 12.7838 13.0421 12.8163 13.1686C12.8303 13.2398 12.8662 13.3053 12.9193 13.3568C12.9728 13.4088 13.0414 13.4441 13.1161 13.4582C13.1908 13.4722 13.2681 13.4644 13.3381 13.4358C13.4071 13.4075 13.4658 13.3603 13.5069 13.3001C13.6023 13.1865 13.6617 13.0489 13.678 12.9037C13.7026 12.6987 13.7304 12.4909 13.7581 12.2832C13.7901 12.0438 13.8221 11.8044 13.8491 11.5696L13.8492 11.5689C13.8752 11.3119 13.8878 11.0538 13.8869 10.7956C13.8926 10.714 13.8714 10.6328 13.8263 10.5633C13.7811 10.4936 13.7141 10.4394 13.6348 10.4084C13.5524 10.3724 13.4602 10.3628 13.3717 10.381C13.2837 10.399 13.2041 10.4435 13.1444 10.508C13.0376 10.6027 12.9375 10.7042 12.8446 10.8116L12.8439 10.8123C12.7425 10.9336 12.6417 11.0573 12.5417 11.1802C12.4808 11.2549 12.4201 11.3294 12.3597 11.4028Z" fill="#3A3B7B"/>
</g>
<defs>
<clipPath id="clip0_212_1596">
<rect width="15.6917" height="9.68213" fill="white" transform="translate(0.434814 4.1814)"/>
</clipPath>
</defs>
</svg>
