<svg width="17" height="17" viewBox="0 0 17 17" fill="none" xmlns="http://www.w3.org/2000/svg">
<rect x="0.0065918" y="0.893921" width="16.0256" height="16.0256" rx="2.67093" fill="#F5F7FA"/>
<g clip-path="url(#clip0_212_1589)">
<path fill-rule="evenodd" clip-rule="evenodd" d="M3.37786 5.55513L0.0439453 8.85553C0.71079 9.51568 1.47256 10.072 2.3031 10.5073C2.53267 11.1101 2.8925 11.6755 3.38261 12.1606C5.22652 13.986 8.21606 13.986 10.0599 12.1606C10.5501 11.6755 10.9099 11.1101 11.1395 10.5073C11.97 10.072 12.7318 9.51568 13.3986 8.85553L10.0674 5.55781C10.0649 5.55535 10.0624 5.55288 10.0599 5.55042C8.21606 3.72506 5.22652 3.72506 3.38261 5.55042C3.38103 5.55199 3.37945 5.55356 3.37786 5.55513ZM9.74093 11.1028C8.76938 11.4273 7.74949 11.5936 6.72128 11.5936C5.69307 11.5936 4.6732 11.4273 3.70165 11.1028C3.80692 11.241 3.92314 11.3737 4.05034 11.4996C5.52547 12.9599 7.91709 12.9599 9.39221 11.4996C9.51941 11.3737 9.63566 11.241 9.74093 11.1028ZM4.11882 6.14533C4.36932 6.30916 4.63568 6.44936 4.91439 6.56365C5.48724 6.79855 6.10122 6.91945 6.72128 6.91945C7.34133 6.91945 7.95531 6.79855 8.52816 6.56365C8.80687 6.44936 9.07323 6.30916 9.32377 6.14533C7.86704 4.77318 5.57551 4.77319 4.11882 6.14533Z" fill="#3B4158"/>
</g>
<defs>
<clipPath id="clip0_212_1589">
<rect width="13.3547" height="9.34826" fill="white" transform="translate(0.0439453 4.1814)"/>
</clipPath>
</defs>
</svg>
