<svg width="19" height="17" viewBox="0 0 19 17" fill="none" xmlns="http://www.w3.org/2000/svg">
<rect x="0.863037" y="0.893921" width="16.0256" height="16.0256" rx="2.67093" fill="#F5F7FA"/>
<g clip-path="url(#clip0_212_1616)">
<path d="M4.984 5.51685C4.306 5.51685 3.65579 5.78618 3.17638 6.26559L1.61178 7.83018C1.13237 8.30959 0.863037 8.95981 0.863037 9.6378C0.863037 11.0497 2.00756 12.1942 3.41941 12.1942C4.0974 12.1942 4.74762 11.9248 5.22703 11.4454L6.30927 10.3632C6.30927 10.3632 6.30929 10.3632 6.30927 10.3632L9.46255 7.20991C9.69151 6.98094 10.0021 6.85231 10.3259 6.85231C10.868 6.85231 11.3276 7.20563 11.4869 7.69456L12.4821 6.69939C12.0281 5.98834 11.232 5.51685 10.3259 5.51685C9.64787 5.51685 8.99765 5.78618 8.51824 6.26559L4.28272 10.5011C4.05376 10.7301 3.74321 10.8587 3.41941 10.8587C2.74512 10.8587 2.1985 10.3121 2.1985 9.6378C2.1985 9.314 2.32713 9.00346 2.5561 8.77449L4.12068 7.20991C4.34965 6.98094 4.66019 6.85231 4.984 6.85231C5.52613 6.85231 5.98571 7.20565 6.14505 7.69459L7.14024 6.69942C6.68625 5.98835 5.8902 5.51685 4.984 5.51685Z" fill="#394149"/>
<path d="M9.62467 10.5011C9.3957 10.7301 9.08516 10.8587 8.76136 10.8587C8.21931 10.8587 7.75976 10.5055 7.60037 10.0166L6.60522 11.0118C7.05924 11.7227 7.85524 12.1942 8.76136 12.1942C9.43935 12.1942 10.0896 11.9248 10.569 11.4454L14.8045 7.20991C15.0335 6.98094 15.344 6.85231 15.6678 6.85231C16.3421 6.85231 16.8887 7.39893 16.8887 8.07322C16.8887 8.39702 16.7601 8.70756 16.5311 8.93653L14.9665 10.5011C14.7376 10.7301 14.427 10.8587 14.1032 10.8587C13.5611 10.8587 13.1016 10.5054 12.9422 10.0165L11.947 11.0117C12.401 11.7227 13.1971 12.1942 14.1032 12.1942C14.7812 12.1942 15.4314 11.9248 15.9108 11.4454L17.4754 9.88084C17.9548 9.40143 18.2242 8.75121 18.2242 8.07322C18.2242 6.66137 17.0797 5.51685 15.6678 5.51685C14.9898 5.51685 14.3396 5.78618 13.8602 6.26559L9.62467 10.5011Z" fill="#394149"/>
</g>
<defs>
<clipPath id="clip0_212_1616">
<rect width="17.3611" height="6.67733" fill="white" transform="translate(0.863037 5.51685)"/>
</clipPath>
</defs>
</svg>
